<svg width="204" height="49" viewBox="0 0 204 49" fill="none" xmlns="http://www.w3.org/2000/svg">
<path d="M1.624 46.768C2.81867 45.104 3.62933 43.3333 4.056 41.456C4.52533 39.5787 4.76 36.6347 4.76 32.624C4.76 29.424 4.58933 24.176 4.248 16.88C2.54133 16.8373 1.432 16.6667 0.92 16.368C0.408 16.0693 0.152 15.4293 0.152 14.448C1.38933 13.8507 2.75467 13.0187 4.248 11.952C4.84533 8.496 6.21067 5.744 8.344 3.696C10.4773 1.60533 13.08 0.559998 16.152 0.559998C18.7973 0.559998 21.0587 0.901332 22.936 1.584C22.936 2.52266 22.744 3.73866 22.36 5.232C21.976 6.72533 21.5493 7.87733 21.08 8.688C17.9653 6.384 15.5333 5.14666 13.784 4.976C13.1013 5.488 12.5893 6.29867 12.248 7.408C11.9493 8.47467 11.7573 10.224 11.672 12.656C14.488 12.6133 16.7067 12.4427 18.328 12.144C18.328 13.9787 17.9653 15.7493 17.24 17.456C15.7467 16.9867 13.848 16.7307 11.544 16.688V20.016C11.544 23.5573 11.6507 26.7573 11.864 29.616C11.9493 31.92 11.992 33.3707 11.992 33.968C11.992 36.016 11.7147 37.7867 11.16 39.28C10.648 40.7733 9.77333 42.2027 8.536 43.568C7.29867 44.976 5.528 46.512 3.224 48.176L1.624 46.768ZM17.4565 38V20.912H21.2645V25.616L20.8165 24.24C21.3285 23.088 22.1285 22.2133 23.2165 21.616C24.3258 21.0187 25.7018 20.72 27.3445 20.72V24.528C27.1738 24.4853 27.0138 24.464 26.8645 24.464C26.7152 24.4427 26.5658 24.432 26.4165 24.432C24.9018 24.432 23.6965 24.88 22.8005 25.776C21.9045 26.6507 21.4565 27.9627 21.4565 29.712V38H17.4565ZM35.886 38.224C34.4353 38.224 33.1553 37.9573 32.046 37.424C30.9367 36.8693 30.0727 36.0373 29.454 34.928C28.8353 33.7973 28.526 32.3787 28.526 30.672V20.912H32.526V30.128C32.526 31.664 32.8673 32.816 33.55 33.584C34.254 34.3307 35.246 34.704 36.526 34.704C37.4647 34.704 38.2753 34.512 38.958 34.128C39.662 33.744 40.206 33.168 40.59 32.4C40.9953 31.632 41.198 30.6827 41.198 29.552V20.912H45.198V38H41.39V33.392L42.062 34.8C41.486 35.9093 40.6433 36.7627 39.534 37.36C38.4247 37.936 37.2087 38.224 35.886 38.224ZM55.9393 44.432C54.3606 44.432 52.8139 44.2187 51.2993 43.792C49.8059 43.3867 48.5793 42.7893 47.6193 42L49.4113 38.992C50.1579 39.6107 51.0966 40.1013 52.2273 40.464C53.3793 40.848 54.5419 41.04 55.7153 41.04C57.5926 41.04 58.9686 40.6027 59.8433 39.728C60.7179 38.8747 61.1553 37.584 61.1553 35.856V32.816L61.4753 28.944L61.3473 25.072V20.912H65.1553V35.408C65.1553 38.5013 64.3659 40.7733 62.7873 42.224C61.2086 43.696 58.9259 44.432 55.9393 44.432ZM55.4273 37.232C53.8059 37.232 52.3339 36.8907 51.0113 36.208C49.7099 35.504 48.6753 34.5333 47.9073 33.296C47.1606 32.0587 46.7873 30.608 46.7873 28.944C46.7873 27.3013 47.1606 25.8613 47.9073 24.624C48.6753 23.3867 49.7099 22.4267 51.0113 21.744C52.3339 21.0613 53.8059 20.72 55.4273 20.72C56.8779 20.72 58.1793 21.008 59.3313 21.584C60.4833 22.16 61.4006 23.056 62.0833 24.272C62.7873 25.488 63.1393 27.0453 63.1393 28.944C63.1393 30.8427 62.7873 32.4107 62.0833 33.648C61.4006 34.864 60.4833 35.7707 59.3313 36.368C58.1793 36.944 56.8779 37.232 55.4273 37.232ZM56.0353 33.84C57.0379 33.84 57.9339 33.6373 58.7233 33.232C59.5126 32.8053 60.1206 32.2293 60.5473 31.504C60.9953 30.7573 61.2193 29.904 61.2193 28.944C61.2193 27.984 60.9953 27.1413 60.5473 26.416C60.1206 25.6693 59.5126 25.104 58.7233 24.72C57.9339 24.3147 57.0379 24.112 56.0353 24.112C55.0326 24.112 54.1259 24.3147 53.3153 24.72C52.5259 25.104 51.9073 25.6693 51.4593 26.416C51.0326 27.1413 50.8193 27.984 50.8193 28.944C50.8193 29.904 51.0326 30.7573 51.4593 31.504C51.9073 32.2293 52.5259 32.8053 53.3153 33.232C54.1259 33.6373 55.0326 33.84 56.0353 33.84ZM78.702 38V34.544L78.478 33.808V27.76C78.478 26.5867 78.126 25.68 77.422 25.04C76.718 24.3787 75.6513 24.048 74.222 24.048C73.262 24.048 72.3127 24.1973 71.374 24.496C70.4567 24.7947 69.678 25.2107 69.038 25.744L67.47 22.832C68.3873 22.128 69.4753 21.6053 70.734 21.264C72.014 20.9013 73.3367 20.72 74.702 20.72C77.1767 20.72 79.086 21.3173 80.43 22.512C81.7953 23.6853 82.478 25.5093 82.478 27.984V38H78.702ZM73.326 38.224C72.046 38.224 70.926 38.0107 69.966 37.584C69.006 37.136 68.2593 36.528 67.726 35.76C67.214 34.9707 66.958 34.0853 66.958 33.104C66.958 32.144 67.182 31.28 67.63 30.512C68.0993 29.744 68.8567 29.136 69.902 28.688C70.9473 28.24 72.334 28.016 74.062 28.016H79.022V30.672H74.35C72.9847 30.672 72.0673 30.896 71.598 31.344C71.1287 31.7707 70.894 32.304 70.894 32.944C70.894 33.6693 71.182 34.2453 71.758 34.672C72.334 35.0987 73.134 35.312 74.158 35.312C75.1393 35.312 76.014 35.088 76.782 34.64C77.5713 34.192 78.1367 33.5307 78.478 32.656L79.15 35.056C78.766 36.0587 78.0727 36.8373 77.07 37.392C76.0887 37.9467 74.8407 38.224 73.326 38.224ZM85.3715 38V14.256H89.3715V38H85.3715Z" fill="#EBE0FF"/>
<path d="M98.9853 46.768C100.18 45.104 100.991 43.3333 101.417 41.456C101.887 39.5787 102.121 36.6347 102.121 32.624C102.121 29.424 101.951 24.176 101.609 16.88C99.9026 16.8373 98.7933 16.6667 98.2813 16.368C97.7693 16.0693 97.5133 15.4293 97.5133 14.448C98.7506 13.8507 100.116 13.0187 101.609 11.952C102.207 8.496 103.572 5.744 105.705 3.696C107.839 1.60533 110.441 0.559998 113.513 0.559998C116.159 0.559998 118.42 0.901332 120.297 1.584C120.297 2.52266 120.105 3.73866 119.721 5.232C119.337 6.72533 118.911 7.87733 118.441 8.688C115.327 6.384 112.895 5.14666 111.145 4.976C110.463 5.488 109.951 6.29867 109.609 7.408C109.311 8.47467 109.119 10.224 109.033 12.656C111.849 12.6133 114.068 12.4427 115.689 12.144C115.689 13.9787 115.327 15.7493 114.601 17.456C113.108 16.9867 111.209 16.7307 108.905 16.688V20.016C108.905 23.5573 109.012 26.7573 109.225 29.616C109.311 31.92 109.353 33.3707 109.353 33.968C109.353 36.016 109.076 37.7867 108.521 39.28C108.009 40.7733 107.135 42.2027 105.897 43.568C104.66 44.976 102.889 46.512 100.585 48.176L98.9853 46.768ZM114.818 38V20.912H118.818V38H114.818ZM116.834 18.096C116.087 18.096 115.468 17.8613 114.978 17.392C114.508 16.9227 114.274 16.3573 114.274 15.696C114.274 15.0133 114.508 14.448 114.978 14C115.468 13.5307 116.087 13.296 116.834 13.296C117.58 13.296 118.188 13.52 118.658 13.968C119.148 14.3947 119.394 14.9387 119.394 15.6C119.394 16.304 119.159 16.9013 118.69 17.392C118.22 17.8613 117.602 18.096 116.834 18.096ZM131.524 20.72C132.889 20.72 134.105 20.9867 135.172 21.52C136.26 22.0533 137.113 22.8747 137.732 23.984C138.35 25.072 138.66 26.48 138.66 28.208V38H134.66V28.72C134.66 27.2053 134.297 26.0747 133.572 25.328C132.868 24.5813 131.876 24.208 130.596 24.208C129.657 24.208 128.825 24.4 128.1 24.784C127.374 25.168 126.809 25.744 126.404 26.512C126.02 27.2587 125.828 28.208 125.828 29.36V38H121.828V20.912H125.636V25.52L124.964 24.112C125.561 23.024 126.425 22.192 127.556 21.616C128.708 21.0187 130.03 20.72 131.524 20.72ZM149.557 38.224C147.659 38.224 145.995 37.8507 144.565 37.104C143.157 36.336 142.059 35.2907 141.269 33.968C140.501 32.6453 140.117 31.1413 140.117 29.456C140.117 27.7493 140.491 26.2453 141.237 24.944C142.005 23.6213 143.051 22.5867 144.373 21.84C145.717 21.0933 147.243 20.72 148.949 20.72C150.613 20.72 152.096 21.0827 153.397 21.808C154.699 22.5333 155.723 23.5573 156.469 24.88C157.216 26.2027 157.589 27.76 157.589 29.552C157.589 29.7227 157.579 29.9147 157.557 30.128C157.557 30.3413 157.547 30.544 157.525 30.736H143.285V28.08H155.413L153.845 28.912C153.867 27.9307 153.664 27.0667 153.237 26.32C152.811 25.5733 152.224 24.9867 151.477 24.56C150.752 24.1333 149.909 23.92 148.949 23.92C147.968 23.92 147.104 24.1333 146.357 24.56C145.632 24.9867 145.056 25.584 144.629 26.352C144.224 27.0987 144.021 27.984 144.021 29.008V29.648C144.021 30.672 144.256 31.5787 144.725 32.368C145.195 33.1573 145.856 33.7653 146.709 34.192C147.563 34.6187 148.544 34.832 149.653 34.832C150.613 34.832 151.477 34.6827 152.245 34.384C153.013 34.0853 153.696 33.616 154.293 32.976L156.437 35.44C155.669 36.336 154.699 37.0293 153.525 37.52C152.373 37.9893 151.051 38.224 149.557 38.224ZM164.472 38.224C163.042 38.224 161.666 38.0427 160.344 37.68C159.042 37.296 158.008 36.8373 157.24 36.304L158.776 33.264C159.544 33.7547 160.461 34.16 161.528 34.48C162.594 34.8 163.661 34.96 164.728 34.96C165.986 34.96 166.893 34.7893 167.448 34.448C168.024 34.1067 168.312 33.648 168.312 33.072C168.312 32.6027 168.12 32.2507 167.736 32.016C167.352 31.76 166.85 31.568 166.232 31.44C165.613 31.312 164.92 31.1947 164.152 31.088C163.405 30.9813 162.648 30.8427 161.88 30.672C161.133 30.48 160.45 30.2133 159.832 29.872C159.213 29.5093 158.712 29.0293 158.328 28.432C157.944 27.8347 157.752 27.0453 157.752 26.064C157.752 24.976 158.061 24.0373 158.68 23.248C159.298 22.4373 160.162 21.8187 161.272 21.392C162.402 20.944 163.736 20.72 165.272 20.72C166.424 20.72 167.586 20.848 168.76 21.104C169.933 21.36 170.904 21.7227 171.672 22.192L170.136 25.232C169.325 24.7413 168.504 24.4107 167.672 24.24C166.861 24.048 166.05 23.952 165.24 23.952C164.024 23.952 163.117 24.1333 162.52 24.496C161.944 24.8587 161.656 25.3173 161.656 25.872C161.656 26.384 161.848 26.768 162.232 27.024C162.616 27.28 163.117 27.4827 163.736 27.632C164.354 27.7813 165.037 27.9093 165.784 28.016C166.552 28.1013 167.309 28.24 168.056 28.432C168.802 28.624 169.485 28.8907 170.104 29.232C170.744 29.552 171.256 30.0107 171.64 30.608C172.024 31.2053 172.216 31.984 172.216 32.944C172.216 34.0107 171.896 34.9387 171.256 35.728C170.637 36.5173 169.752 37.136 168.6 37.584C167.448 38.0107 166.072 38.224 164.472 38.224ZM178.7 38.224C177.271 38.224 175.895 38.0427 174.572 37.68C173.271 37.296 172.236 36.8373 171.468 36.304L173.004 33.264C173.772 33.7547 174.69 34.16 175.756 34.48C176.823 34.8 177.89 34.96 178.956 34.96C180.215 34.96 181.122 34.7893 181.676 34.448C182.252 34.1067 182.54 33.648 182.54 33.072C182.54 32.6027 182.348 32.2507 181.964 32.016C181.58 31.76 181.079 31.568 180.46 31.44C179.842 31.312 179.148 31.1947 178.38 31.088C177.634 30.9813 176.876 30.8427 176.108 30.672C175.362 30.48 174.679 30.2133 174.06 29.872C173.442 29.5093 172.94 29.0293 172.556 28.432C172.172 27.8347 171.98 27.0453 171.98 26.064C171.98 24.976 172.29 24.0373 172.908 23.248C173.527 22.4373 174.391 21.8187 175.5 21.392C176.631 20.944 177.964 20.72 179.5 20.72C180.652 20.72 181.815 20.848 182.988 21.104C184.162 21.36 185.132 21.7227 185.9 22.192L184.364 25.232C183.554 24.7413 182.732 24.4107 181.9 24.24C181.09 24.048 180.279 23.952 179.468 23.952C178.252 23.952 177.346 24.1333 176.748 24.496C176.172 24.8587 175.884 25.3173 175.884 25.872C175.884 26.384 176.076 26.768 176.46 27.024C176.844 27.28 177.346 27.4827 177.964 27.632C178.583 27.7813 179.266 27.9093 180.012 28.016C180.78 28.1013 181.538 28.24 182.284 28.432C183.031 28.624 183.714 28.8907 184.332 29.232C184.972 29.552 185.484 30.0107 185.868 30.608C186.252 31.2053 186.444 31.984 186.444 32.944C186.444 34.0107 186.124 34.9387 185.484 35.728C184.866 36.5173 183.98 37.136 182.828 37.584C181.676 38.0107 180.3 38.224 178.7 38.224ZM195.681 38.224C193.782 38.224 192.118 37.8507 190.689 37.104C189.281 36.336 188.182 35.2907 187.393 33.968C186.625 32.6453 186.241 31.1413 186.241 29.456C186.241 27.7493 186.614 26.2453 187.361 24.944C188.129 23.6213 189.174 22.5867 190.497 21.84C191.841 21.0933 193.366 20.72 195.073 20.72C196.737 20.72 198.22 21.0827 199.521 21.808C200.822 22.5333 201.846 23.5573 202.593 24.88C203.34 26.2027 203.713 27.76 203.713 29.552C203.713 29.7227 203.702 29.9147 203.681 30.128C203.681 30.3413 203.67 30.544 203.649 30.736H189.409V28.08H201.537L199.969 28.912C199.99 27.9307 199.788 27.0667 199.361 26.32C198.934 25.5733 198.348 24.9867 197.601 24.56C196.876 24.1333 196.033 23.92 195.073 23.92C194.092 23.92 193.228 24.1333 192.481 24.56C191.756 24.9867 191.18 25.584 190.753 26.352C190.348 27.0987 190.145 27.984 190.145 29.008V29.648C190.145 30.672 190.38 31.5787 190.849 32.368C191.318 33.1573 191.98 33.7653 192.833 34.192C193.686 34.6187 194.668 34.832 195.777 34.832C196.737 34.832 197.601 34.6827 198.369 34.384C199.137 34.0853 199.82 33.616 200.417 32.976L202.561 35.44C201.793 36.336 200.822 37.0293 199.649 37.52C198.497 37.9893 197.174 38.224 195.681 38.224Z" fill="#AC8BEE"/>
</svg>
