<svg width="111" height="25" viewBox="0 0 111 25" fill="none" xmlns="http://www.w3.org/2000/svg">
<path d="M1.29496 23.3271C1.88454 22.5059 2.28461 21.632 2.49517 20.7056C2.72679 19.7791 2.8426 18.3262 2.8426 16.3469C2.8426 14.7677 2.75837 12.1778 2.58992 8.57714C1.74767 8.55609 1.20021 8.47186 0.947533 8.32447C0.694857 8.17707 0.56852 7.86123 0.56852 7.37693C1.17915 7.08215 1.85295 6.67155 2.58992 6.14514C2.88471 4.43958 3.55851 3.08145 4.61133 2.07075C5.66414 1.03899 6.94857 0.523116 8.46462 0.523116C9.77011 0.523116 10.8861 0.691566 11.8126 1.02847C11.8126 1.4917 11.7178 2.09181 11.5283 2.82878C11.3388 3.56575 11.1282 4.13427 10.8966 4.53434C9.35952 3.3973 8.15931 2.78667 7.296 2.70244C6.9591 2.95512 6.70642 3.35519 6.53797 3.90265C6.39058 4.42906 6.29583 5.29236 6.25371 6.49257C7.64343 6.47151 8.73836 6.38729 9.53849 6.2399C9.53849 7.14532 9.35952 8.01915 9.00156 8.8614C8.26459 8.62978 7.32758 8.50345 6.19055 8.48239V10.1248C6.19055 11.8724 6.24319 13.4517 6.34847 14.8624C6.39058 15.9995 6.41164 16.7154 6.41164 17.0102C6.41164 18.0209 6.27477 18.8947 6.00104 19.6317C5.74836 20.3687 5.31671 21.074 4.70608 21.7478C4.09545 22.4427 3.22161 23.2007 2.08457 24.0219L1.29496 23.3271ZM10.3718 19V10.567H12.2511V12.8884L12.03 12.2094C12.2826 11.6408 12.6774 11.2092 13.2144 10.9144C13.7618 10.6196 14.4409 10.4722 15.2516 10.4722V12.3515C15.1673 12.3304 15.0884 12.3199 15.0147 12.3199C14.941 12.3094 14.8673 12.3041 14.7936 12.3041C14.0461 12.3041 13.4513 12.5252 13.0091 12.9674C12.5669 13.399 12.3458 14.0465 12.3458 14.9098V19H10.3718ZM20.0985 19.1105C19.3826 19.1105 18.7509 18.9789 18.2035 18.7157C17.656 18.442 17.2296 18.0314 16.9243 17.4839C16.619 16.926 16.4663 16.2258 16.4663 15.3836V10.567H18.4404V15.1151C18.4404 15.8731 18.6088 16.4417 18.9457 16.8207C19.2931 17.1892 19.7827 17.3734 20.4144 17.3734C20.8776 17.3734 21.2777 17.2786 21.6146 17.0891C21.962 16.8996 22.2305 16.6154 22.42 16.2364C22.62 15.8574 22.7201 15.3888 22.7201 14.8309V10.567H24.6941V19H22.8148V16.7259L23.1464 17.4208C22.8622 17.9682 22.4463 18.3894 21.8989 18.6842C21.3514 18.9684 20.7513 19.1105 20.0985 19.1105ZM30.6266 22.1742C29.8476 22.1742 29.0843 22.069 28.3368 21.8584C27.5998 21.6584 26.9944 21.3636 26.5207 20.974L27.405 19.4896C27.7735 19.7949 28.2368 20.037 28.7947 20.216C29.3633 20.4055 29.9371 20.5003 30.5161 20.5003C31.4426 20.5003 32.1216 20.2844 32.5533 19.8528C32.9849 19.4317 33.2008 18.7947 33.2008 17.9419V16.4417L33.3587 14.5308L33.2955 12.6199V10.567H35.1748V17.7208C35.1748 19.2474 34.7853 20.3687 34.0062 21.0846C33.2271 21.811 32.1006 22.1742 30.6266 22.1742ZM30.374 18.621C29.5738 18.621 28.8474 18.4525 28.1946 18.1156C27.5524 17.7682 27.0418 17.2892 26.6628 16.6785C26.2943 16.0679 26.1101 15.352 26.1101 14.5308C26.1101 13.7201 26.2943 13.0095 26.6628 12.3989C27.0418 11.7882 27.5524 11.3145 28.1946 10.9776C28.8474 10.6407 29.5738 10.4722 30.374 10.4722C31.0899 10.4722 31.7321 10.6143 32.3006 10.8986C32.8691 11.1829 33.3218 11.625 33.6587 12.2251C34.0062 12.8252 34.1799 13.5938 34.1799 14.5308C34.1799 15.4678 34.0062 16.2416 33.6587 16.8523C33.3218 17.4524 32.8691 17.8998 32.3006 18.1946C31.7321 18.4789 31.0899 18.621 30.374 18.621ZM30.674 16.947C31.1688 16.947 31.611 16.847 32.0006 16.647C32.3901 16.4364 32.6902 16.1521 32.9007 15.7942C33.1218 15.4257 33.2324 15.0046 33.2324 14.5308C33.2324 14.057 33.1218 13.6412 32.9007 13.2832C32.6902 12.9147 32.3901 12.6357 32.0006 12.4462C31.611 12.2462 31.1688 12.1462 30.674 12.1462C30.1792 12.1462 29.7318 12.2462 29.3317 12.4462C28.9421 12.6357 28.6368 12.9147 28.4157 13.2832C28.2052 13.6412 28.0999 14.057 28.0999 14.5308C28.0999 15.0046 28.2052 15.4257 28.4157 15.7942C28.6368 16.1521 28.9421 16.4364 29.3317 16.647C29.7318 16.847 30.1792 16.947 30.674 16.947ZM42.4919 19V17.2944L42.3813 16.9312V13.9465C42.3813 13.3674 42.2076 12.92 41.8602 12.6042C41.5128 12.2778 40.9864 12.1146 40.281 12.1146C39.8072 12.1146 39.3387 12.1883 38.8755 12.3357C38.4228 12.4831 38.0385 12.6884 37.7226 12.9516L36.9488 11.5145C37.4015 11.1671 37.9385 10.9091 38.5596 10.7407C39.1913 10.5617 39.8441 10.4722 40.5179 10.4722C41.7391 10.4722 42.6814 10.767 43.3447 11.3566C44.0185 11.9356 44.3554 12.8358 44.3554 14.057V19H42.4919ZM39.8388 19.1105C39.2071 19.1105 38.6544 19.0053 38.1806 18.7947C37.7069 18.5736 37.3384 18.2736 37.0752 17.8945C36.8225 17.505 36.6962 17.0681 36.6962 16.5838C36.6962 16.11 36.8067 15.6836 37.0278 15.3046C37.2594 14.9256 37.6332 14.6256 38.149 14.4045C38.6649 14.1834 39.3492 14.0728 40.202 14.0728H42.6498V15.3836H40.3442C39.6704 15.3836 39.2176 15.4941 38.986 15.7152C38.7544 15.9258 38.6386 16.189 38.6386 16.5048C38.6386 16.8628 38.7807 17.147 39.065 17.3576C39.3492 17.5682 39.7441 17.6735 40.2494 17.6735C40.7337 17.6735 41.1653 17.5629 41.5444 17.3418C41.9339 17.1207 42.2129 16.7944 42.3813 16.3627L42.713 17.5471C42.5235 18.0419 42.1813 18.4262 41.6865 18.6999C41.2022 18.9737 40.5863 19.1105 39.8388 19.1105ZM46.415 19V7.28218H48.3891V19H46.415Z" fill="#EBE0FF"/>
<path d="M54.3969 23.3271C54.9865 22.5059 55.3865 21.632 55.5971 20.7056C55.8287 19.7791 55.9445 18.3262 55.9445 16.3469C55.9445 14.7677 55.8603 12.1778 55.6918 8.57714C54.8496 8.55609 54.3021 8.47186 54.0494 8.32447C53.7968 8.17707 53.6704 7.86123 53.6704 7.37693C54.2811 7.08215 54.9549 6.67155 55.6918 6.14514C55.9866 4.43958 56.6604 3.08145 57.7132 2.07075C58.7661 1.03899 60.0505 0.523116 61.5665 0.523116C62.872 0.523116 63.988 0.691566 64.9145 1.02847C64.9145 1.4917 64.8197 2.09181 64.6302 2.82878C64.4407 3.56575 64.2302 4.13427 63.9985 4.53434C62.4614 3.3973 61.2612 2.78667 60.3979 2.70244C60.061 2.95512 59.8083 3.35519 59.6399 3.90265C59.4925 4.42906 59.3977 5.29236 59.3556 6.49257C60.7453 6.47151 61.8403 6.38729 62.6404 6.2399C62.6404 7.14532 62.4614 8.01915 62.1035 8.8614C61.3665 8.62978 60.4295 8.50345 59.2925 8.48239V10.1248C59.2925 11.8724 59.3451 13.4517 59.4504 14.8624C59.4925 15.9995 59.5136 16.7154 59.5136 17.0102C59.5136 18.0209 59.3767 18.8947 59.103 19.6317C58.8503 20.3687 58.4186 21.074 57.808 21.7478C57.1974 22.4427 56.3235 23.2007 55.1865 24.0219L54.3969 23.3271ZM63.4737 19V10.567H65.4477V19H63.4737ZM64.4686 9.17725C64.1001 9.17725 63.7948 9.06144 63.5527 8.82982C63.321 8.5982 63.2052 8.3192 63.2052 7.99283C63.2052 7.65593 63.321 7.37693 63.5527 7.15584C63.7948 6.92422 64.1001 6.80842 64.4686 6.80842C64.8371 6.80842 65.1371 6.91896 65.3688 7.14005C65.6109 7.35061 65.732 7.61908 65.732 7.94545C65.732 8.29288 65.6162 8.58767 65.3846 8.82982C65.1529 9.06144 64.8476 9.17725 64.4686 9.17725ZM72.3499 10.4722C73.0237 10.4722 73.6238 10.6038 74.1502 10.867C74.6872 11.1302 75.1083 11.5355 75.4136 12.083C75.7189 12.6199 75.8716 13.3148 75.8716 14.1676V19H73.8975V14.4203C73.8975 13.6728 73.7186 13.1148 73.3606 12.7463C73.0132 12.3778 72.5236 12.1936 71.8919 12.1936C71.4287 12.1936 71.0181 12.2883 70.6601 12.4778C70.3022 12.6673 70.0232 12.9516 69.8232 13.3306C69.6336 13.6991 69.5389 14.1676 69.5389 14.7361V19H67.5649V10.567H69.4441V12.841L69.1125 12.1462C69.4073 11.6092 69.8337 11.1986 70.3917 10.9144C70.9602 10.6196 71.6129 10.4722 72.3499 10.4722ZM81.8812 19.1105C80.9442 19.1105 80.123 18.9263 79.4177 18.5578C78.7228 18.1788 78.1806 17.6629 77.7911 17.0102C77.412 16.3574 77.2225 15.6152 77.2225 14.7835C77.2225 13.9412 77.4068 13.199 77.7753 12.5568C78.1543 11.904 78.6702 11.3934 79.3229 11.0249C79.9862 10.6565 80.7389 10.4722 81.5812 10.4722C82.4024 10.4722 83.1341 10.6512 83.7763 11.0091C84.4185 11.3671 84.9239 11.8724 85.2924 12.5252C85.6608 13.1779 85.8451 13.9465 85.8451 14.8309C85.8451 14.9151 85.8398 15.0098 85.8293 15.1151C85.8293 15.2204 85.824 15.3204 85.8135 15.4152H78.786V14.1044H84.7712L83.9974 14.515C84.0079 14.0307 83.9079 13.6043 83.6973 13.2358C83.4868 12.8674 83.1973 12.5778 82.8288 12.3673C82.4708 12.1567 82.055 12.0514 81.5812 12.0514C81.0969 12.0514 80.6705 12.1567 80.302 12.3673C79.9441 12.5778 79.6598 12.8726 79.4492 13.2516C79.2492 13.6201 79.1492 14.057 79.1492 14.5624V14.8782C79.1492 15.3836 79.265 15.831 79.4966 16.2206C79.7282 16.6101 80.0546 16.9102 80.4757 17.1207C80.8969 17.3313 81.3812 17.4366 81.9286 17.4366C82.4024 17.4366 82.8288 17.3629 83.2078 17.2155C83.5868 17.0681 83.9237 16.8365 84.2185 16.5206L85.2766 17.7366C84.8976 18.1788 84.4185 18.521 83.8395 18.7631C83.271 18.9947 82.6182 19.1105 81.8812 19.1105ZM89.8732 19.1105C89.1678 19.1105 88.4888 19.0211 87.836 18.8421C87.1938 18.6526 86.6832 18.4262 86.3042 18.163L87.0622 16.6628C87.4412 16.9049 87.8939 17.1049 88.4203 17.2629C88.9467 17.4208 89.4731 17.4997 89.9995 17.4997C90.6207 17.4997 91.0682 17.4155 91.3419 17.2471C91.6261 17.0786 91.7683 16.8523 91.7683 16.568C91.7683 16.3364 91.6735 16.1627 91.484 16.0469C91.2945 15.9205 91.0471 15.8258 90.7418 15.7626C90.4365 15.6994 90.0943 15.6415 89.7153 15.5889C89.3468 15.5362 88.9731 15.4678 88.594 15.3836C88.2256 15.2888 87.8887 15.1572 87.5833 14.9888C87.278 14.8098 87.0306 14.5729 86.8411 14.2781C86.6516 13.9833 86.5568 13.5938 86.5568 13.1095C86.5568 12.5726 86.7095 12.1093 87.0148 11.7198C87.3201 11.3197 87.7465 11.0144 88.294 10.8038C88.852 10.5828 89.51 10.4722 90.268 10.4722C90.8365 10.4722 91.4103 10.5354 91.9894 10.6617C92.5684 10.7881 93.0474 10.967 93.4265 11.1986L92.6684 12.6989C92.2684 12.4568 91.863 12.2936 91.4524 12.2094C91.0524 12.1146 90.6523 12.0672 90.2522 12.0672C89.6521 12.0672 89.2047 12.1567 88.9099 12.3357C88.6256 12.5147 88.4835 12.741 88.4835 13.0148C88.4835 13.2674 88.5782 13.4569 88.7678 13.5833C88.9573 13.7096 89.2047 13.8096 89.51 13.8833C89.8153 13.957 90.1522 14.0202 90.5207 14.0728C90.8997 14.1149 91.2735 14.1834 91.6419 14.2781C92.0104 14.3729 92.3473 14.5045 92.6526 14.6729C92.9685 14.8309 93.2212 15.0572 93.4107 15.352C93.6002 15.6468 93.6949 16.0311 93.6949 16.5048C93.6949 17.0312 93.537 17.4892 93.2212 17.8788C92.9158 18.2683 92.4789 18.5736 91.9104 18.7947C91.3419 19.0053 90.6628 19.1105 89.8732 19.1105ZM97.5269 19.1105C96.8215 19.1105 96.1424 19.0211 95.4897 18.8421C94.8475 18.6526 94.3368 18.4262 93.9578 18.163L94.7159 16.6628C95.0949 16.9049 95.5476 17.1049 96.074 17.2629C96.6004 17.4208 97.1268 17.4997 97.6532 17.4997C98.2744 17.4997 98.7218 17.4155 98.9955 17.2471C99.2798 17.0786 99.4219 16.8523 99.4219 16.568C99.4219 16.3364 99.3272 16.1627 99.1377 16.0469C98.9482 15.9205 98.7008 15.8258 98.3954 15.7626C98.0901 15.6994 97.748 15.6415 97.369 15.5889C97.0005 15.5362 96.6267 15.4678 96.2477 15.3836C95.8792 15.2888 95.5423 15.1572 95.237 14.9888C94.9317 14.8098 94.6843 14.5729 94.4948 14.2781C94.3053 13.9833 94.2105 13.5938 94.2105 13.1095C94.2105 12.5726 94.3632 12.1093 94.6685 11.7198C94.9738 11.3197 95.4002 11.0144 95.9477 10.8038C96.5056 10.5828 97.1637 10.4722 97.9217 10.4722C98.4902 10.4722 99.064 10.5354 99.643 10.6617C100.222 10.7881 100.701 10.967 101.08 11.1986L100.322 12.6989C99.922 12.4568 99.5167 12.2936 99.1061 12.2094C98.706 12.1146 98.306 12.0672 97.9059 12.0672C97.3058 12.0672 96.8583 12.1567 96.5635 12.3357C96.2793 12.5147 96.1372 12.741 96.1372 13.0148C96.1372 13.2674 96.2319 13.4569 96.4214 13.5833C96.6109 13.7096 96.8583 13.8096 97.1637 13.8833C97.469 13.957 97.8059 14.0202 98.1744 14.0728C98.5534 14.1149 98.9271 14.1834 99.2956 14.2781C99.6641 14.3729 100.001 14.5045 100.306 14.6729C100.622 14.8309 100.875 15.0572 101.064 15.352C101.254 15.6468 101.349 16.0311 101.349 16.5048C101.349 17.0312 101.191 17.4892 100.875 17.8788C100.57 18.2683 100.133 18.5736 99.5641 18.7947C98.9955 19.0053 98.3165 19.1105 97.5269 19.1105ZM106.539 19.1105C105.602 19.1105 104.78 18.9263 104.075 18.5578C103.38 18.1788 102.838 17.6629 102.448 17.0102C102.069 16.3574 101.88 15.6152 101.88 14.7835C101.88 13.9412 102.064 13.199 102.433 12.5568C102.812 11.904 103.328 11.3934 103.98 11.0249C104.644 10.6565 105.396 10.4722 106.239 10.4722C107.06 10.4722 107.792 10.6512 108.434 11.0091C109.076 11.3671 109.581 11.8724 109.95 12.5252C110.318 13.1779 110.503 13.9465 110.503 14.8309C110.503 14.9151 110.497 15.0098 110.487 15.1151C110.487 15.2204 110.481 15.3204 110.471 15.4152H103.443V14.1044H109.429L108.655 14.515C108.665 14.0307 108.565 13.6043 108.355 13.2358C108.144 12.8674 107.855 12.5778 107.486 12.3673C107.128 12.1567 106.712 12.0514 106.239 12.0514C105.754 12.0514 105.328 12.1567 104.959 12.3673C104.601 12.5778 104.317 12.8726 104.107 13.2516C103.907 13.6201 103.807 14.057 103.807 14.5624V14.8782C103.807 15.3836 103.922 15.831 104.154 16.2206C104.386 16.6101 104.712 16.9102 105.133 17.1207C105.554 17.3313 106.039 17.4366 106.586 17.4366C107.06 17.4366 107.486 17.3629 107.865 17.2155C108.244 17.0681 108.581 16.8365 108.876 16.5206L109.934 17.7366C109.555 18.1788 109.076 18.521 108.497 18.7631C107.928 18.9947 107.276 19.1105 106.539 19.1105Z" fill="#AC8BEE"/>
</svg>
